<?xml version="1.0" standalone="no"?>
<!DOCTYPE svg PUBLIC "-//W3C//DTD SVG 20010904//EN"
 "http://www.w3.org/TR/2001/REC-SVG-20010904/DTD/svg10.dtd">
<svg version="1.0" xmlns="http://www.w3.org/2000/svg"
 width="350.000000pt" height="350.000000pt" viewBox="0 0 350.000000 350.000000"
 preserveAspectRatio="xMidYMid meet">
<metadata>
Created by potrace 1.14, written by Peter Selinger 2001-2017
</metadata>
<g transform="translate(0.000000,350.000000) scale(0.100000,-0.100000)"
fill="#000000" stroke="none">
<path d="M1190 3325 l0 -95 -185 0 -185 0 0 -95 0 -95 -95 0 -95 0 0 -90 0
-90 -90 0 -90 0 0 -185 0 -185 -95 0 -95 0 0 -745 0 -745 95 0 95 0 0 -190 0
-190 90 0 90 0 0 -90 0 -90 95 0 95 0 0 -95 0 -95 185 0 185 0 0 -95 0 -95
560 0 560 0 0 95 0 95 185 0 185 0 0 95 0 95 95 0 95 0 0 90 0 90 95 0 95 0 0
190 0 190 90 0 90 0 0 745 0 745 -90 0 -90 0 0 185 0 185 -95 0 -95 0 0 90 0
90 -95 0 -95 0 0 95 0 95 -185 0 -185 0 0 95 0 95 -560 0 -560 0 0 -95z"/>
</g>
</svg>
